<svg enable-background="new 221.807 89.47 440 621.061" height="2500" viewBox="221.807 89.47 440 621.061" width="1771" xmlns="http://www.w3.org/2000/svg" xmlns:xlink="http://www.w3.org/1999/xlink"><filter id="a" height="150%" width="150%" x="-5%" y="-5%"><feFlood flood-opacity=".5" result="floodFill"/><feComposite in="floodFill" in2="SourceAlpha" operator="in" result="coloredAlpha"/><feGaussianBlur in="coloredAlpha" result="blur" stdDeviation="8"/><feComposite in="blur" in2="SourceGraphic" operator="out" result="maskedOffsetBlur"/><feMerge><feMergeNode in="maskedOffsetBlur"/><feMergeNode in="SourceGraphic"/></feMerge></filter><g filter="url(#a)"><path d="m261.849 660.647-40.042-449.125h440l-40.086 449.054-180.184 49.954z" fill="#e44d26"/><path d="m441.807 672.348 145.596-40.367 34.258-383.735h-179.854z" fill="#f16529"/><path d="m441.807 414.82h-72.888l-5.035-56.406h77.923v-55.084h-138.124l1.32 14.778 13.538 151.794h123.266zm0 143.056-.242.066-61.346-16.566-3.922-43.93h-55.294l7.718 86.489 112.834 31.323.252-.071z" fill="#ebebeb"/><path d="m262.745 89.47h27.992v27.656h25.606v-27.656h27.993v83.75h-27.993v-28.044h-25.606v28.044h-27.99zm118.404 27.774h-24.642v-27.774h77.293v27.774h-24.654v55.976h-27.996v-55.976zm64.916-27.774h29.19l17.955 29.428 17.938-29.428h29.2v83.75h-27.882v-41.512l-19.259 29.778h-.481l-19.272-29.778v41.512h-27.39v-83.75zm108.212 0h28v56.068h39.368v27.682h-67.368z"/><path d="m441.617 414.82v55.082h67.83l-6.395 71.44-61.435 16.58v57.307l112.924-31.294.826-9.309 12.946-145.014 1.344-14.792h-14.842zm0-111.49v55.084h133.053l1.103-12.382 2.51-27.924 1.318-14.778z" fill="#fff"/></g></svg>