<?xml version="1.0" encoding="utf-8"?>
<!DOCTYPE svg PUBLIC "-//W3C//DTD SVG 1.1//EN" "http://www.w3.org/Graphics/SVG/1.1/DTD/svg11.dtd">
<svg version="1.1" id="Layer_1" xmlns="http://www.w3.org/2000/svg" width="250px" height="50.331px">
<path fill="#14234C" d="M97.172,12.581h0.147v1.257c-0.031,0.003-0.994,0.132-0.994,0.132c-1.68,0.244-1.68,0.553-1.68,4.334v13.712c0,3.783,0,4.093,1.676,4.338c0,0,0.888,0.115,0.998,0.131v1.258H86.776v-1.258c0.031-0.004,0.127-0.02,0.127-0.02c0.719-0.09,0.694-0.087,0.761-0.094c0.055-0.003,0.142-0.018,0.142-0.018c1.642-0.245,1.642-0.553,1.642-4.338v-6.408H78.367v6.444c0,3.75,0,4.057,1.64,4.302c0,0,0.924,0.115,1.035,0.131v1.258H70.497v-1.258c0.033-0.004,0.133-0.02,0.133-0.02c0.717-0.09,0.566-0.069,0.623-0.073c0.061-0.004,0.28-0.038,0.28-0.038c1.642-0.245,1.642-0.552,1.642-4.302V18.304c0-3.781,0-4.092-1.639-4.334c0,0-0.929-0.117-1.039-0.132v-1.257h10.545v1.257c-0.032,0.003-0.13,0.015-0.13,0.015c-0.72,0.092-0.595,0.077-0.842,0.109c-0.022,0.001-0.059,0.008-0.059,0.008c-1.645,0.242-1.645,0.551-1.645,4.298v5.352h11.082v-5.316c0-3.781,0-4.092-1.639-4.334c0,0-0.925-0.117-1.034-0.132v-1.257H97.172z M139,12.585c0,0-0.083,0.015-0.112,0.024c-0.022,0.396-1.284,20.756-1.284,20.756c-0.184,2.495-0.682,2.707-1.691,2.917c0,0-1.07,0.206-1.1,0.21v1.247h8.512v-1.251c-0.111-0.02-1.371-0.208-1.373-0.208c-1.43-0.289-1.813-0.366-1.813-1.983l0.021-0.801l0.437-12.527c0,0,8.356,16.754,8.375,16.786c0.022-0.005,0.104-0.016,0.104-0.016c0.537-0.074,0.929-0.192,1.459-0.383c0,0,0.053-0.018,0.056-0.015c0.003-0.004,7.673-16.262,7.673-16.262l0.048,0.008l0.469,12.404l0.01,0.615c0,1.85-0.384,1.918-1.811,2.173c0,0-1.334,0.2-1.365,0.208v1.251h10.918v-1.251c-0.107-0.02-1.251-0.208-1.251-0.208c-1.034-0.168-1.534-0.373-1.685-3.254c0,0-1.137-20.626-1.141-20.671h-0.139c-0.789,0-1.112,0.038-1.916,0.229c0,0-0.061,0.014-0.063,0.009c-0.004,0.004-9.326,18.426-9.326,18.426l-0.023-0.043c0,0-9.973-18.596-9.973-18.626l-0.162,0.006C140.009,12.394,139.898,12.397,139,12.585 M199.966,12.581v1.257c0.813,0.111,1.022,0.143,1.028,0.145l0.207,0.036c1.44,0.329,1.44,0.325,1.44,4.286v13.712c0,4.028,0,4.028-1.517,4.315c0,0-0.135,0.018-0.139,0.018c0,0-0.99,0.132-1.021,0.136v1.258h18.563c0.01-0.026,0.035-0.103,0.035-0.103c0.805-2.456,1.078-4.471,1.251-6.929c0,0,0.008-0.101,0.008-0.134c-0.038-0.007-1.579-0.308-1.619-0.315c-0.029,0.105-0.162,0.616-0.162,0.616c-0.688,2.642-1.334,5.137-6.55,5.137c-1.246,0-2.486-0.259-3.639-0.531l-0.017-0.009v-9.792h2.563c3.158,0,3.564,0,3.809,1.533c0,0,0.2,1.294,0.207,1.333h1.254v-7.794h-1.257c-0.004,0.042-0.206,1.447-0.206,1.447c-0.205,1.445-0.584,1.495-3.958,1.495h-2.412v-9.39h2.563c3.886,0,5.063,0,6.034,4.743c0,0,0.02,0.104,0.022,0.137c0.047-0.004,1.585-0.219,1.625-0.226v-0.132c0-1.963,0-4.195-0.455-6.131c0,0-0.021-0.088-0.025-0.117h-0.12H199.966z M121.629,13.823c0.11,0.012,1.108,0.125,1.11,0.125c1.666,0.233,1.923,0.271,1.954,2.675l0.151,9.768c-0.008,1.515-0.045,2.641-0.203,3.89c-0.557,4.409-3.641,5.979-6.336,5.979c-4.162,0-6.955-2.712-6.955-6.75V18.263c0-3.748,0-4.055,1.646-4.3c0,0,0.996-0.125,1.027-0.13v-1.256h-10.542v1.256c0.111,0.014,1.033,0.132,1.033,0.132c1.641,0.243,1.641,0.55,1.641,4.298v9.285c0,7.236,3.773,10.754,11.537,10.754c6.227,0,9.563-3.433,9.917-10.205l0.054-1.759c0,0,0-0.001,0.233-9.236c0.036-2.504,0.521-2.747,1.517-3.017c0,0,0.82-0.23,0.852-0.238c0-0.037,0-1.221,0-1.268h-8.637L121.629,13.823z M183.074,36.015c3.109,0,4.824-1.768,4.824-4.976c0-2.787-1.645-5.77-6.258-5.77h-1.449h-0.025v10.178l0.016,0.006C181.176,35.818,182.174,36.015,183.074,36.015 M180.166,23.544h1.248c2.457,0,5.276-0.537,5.276-4.715c0-2.747-1.865-4.523-4.749-4.523c-0.604,0-1.176,0.076-1.76,0.232l-0.016,0.006V23.544z M187.07,23.982c1.414,0.272,6.021,1.549,6.021,6.528c0,4.729-3.753,7.231-10.847,7.231H172.3v-1.258c0.04-0.009,1.016-0.129,1.016-0.129c0.006,0,0.182-0.037,0.182-0.037c1.479-0.31,1.479-0.31,1.479-4.301v-13.79c0-3.948,0-3.948-1.518-4.234l-0.123-0.026c-0.004,0-0.925-0.116-1.035-0.129v-1.255h0.146h11.228c5.448,0,8.211,1.797,8.211,5.346c0,2.887-1.619,4.907-4.818,6.007l-0.089,0.03L187.07,23.982 M235.907,25.237c5.283,0,5.283-4.254,5.283-5.652c0-3.21-2.034-5.279-5.173-5.279c-0.623,0-1.208,0.077-1.785,0.232l-0.02,0.007v10.692H235.907 M249.764,36.455c0,0,0.197,0.02,0.236,0.025v1.259h-3.429c-3.686,0-5.267-2.214-6.237-4.149l-1.432-2.785l-0.658-1.354c-0.77-1.658-1.155-2.485-2.977-2.485h-1.055v5.086c0,3.75,0,4.057,1.637,4.302c0,0,0.928,0.112,1.039,0.131v1.255h-10.547v-1.255c0.033-0.004,0.132-0.02,0.132-0.02c0.688-0.083,0.661-0.077,0.751-0.089c0.051-0.004,0.153-0.022,0.153-0.022c1.645-0.245,1.645-0.553,1.645-4.338v-13.75c0-3.825,0-4.054-1.681-4.297c0,0-0.891-0.119-1-0.133v-1.255h0.15h10.852c4.208,0,9.037,0.732,9.037,6.441c0,3.819-3.325,5.815-4.75,6.496l-0.021,0.01l0.008,0.021c0.816,1.799,3.442,6.804,5.936,9.958C248.159,36.28,249.087,36.381,249.764,36.455"/>
<path fill="#14234C" d="M56.174,9.24c0,1.968-1.598,3.563-3.549,3.563c-1.97,0-3.56-1.595-3.56-3.563c0-1.966,1.59-3.562,3.56-3.562C54.576,5.678,56.174,7.273,56.174,9.24"/>
<path fill="#14234C" d="M11.982,32.083V13.087h5.54v14.007c3.947-3.249,8.161-6.163,12.46-8.684V6.417h5.527v8.984c3.516-1.759,7.034-3.239,10.463-4.424C41.434,4.357,33.809,0,25.174,0C11.263,0,0,11.267,0,25.176c0,5.582,1.825,10.751,4.912,14.928C7.053,37.285,9.421,34.605,11.982,32.083"/>
<path fill="#D4A82A" d="M46.449,11.708c-3.64,1.493-7.337,3.519-10.938,5.997v26.212h-5.528V21.936c-7.632,6.435-14.388,14.85-18.591,24.303c3.96,2.591,8.692,4.093,13.783,4.093c13.902,0,25.184-11.258,25.184-25.154C50.358,20.221,48.921,15.605,46.449,11.708"/>
</svg>
