<?xml version="1.0" encoding="utf-8"?>
<!-- Generator: Adobe Illustrator 22.0.0, SVG Export Plug-In . SVG Version: 6.00 Build 0)  -->
<svg version="1.1" id="Layer_1" xmlns="http://www.w3.org/2000/svg" xmlns:xlink="http://www.w3.org/1999/xlink" x="0px" y="0px"
	 viewBox="0 0 250 50.3" style="enable-background:new 0 0 250 50.3;" xml:space="preserve">
<style type="text/css">
	.st0{fill:#14234C;}
	.st1{fill:#D4A82A;}
</style>
<path class="st0" d="M97.2,12.6h0.1v1.3c0,0-1,0.1-1,0.1c-1.7,0.2-1.7,0.6-1.7,4.3V32c0,3.8,0,4.1,1.7,4.3c0,0,0.9,0.1,1,0.1v1.3
	H86.8v-1.3c0,0,0.1,0,0.1,0c0.7-0.1,0.7-0.1,0.8-0.1c0.1,0,0.1,0,0.1,0c1.6-0.2,1.6-0.6,1.6-4.3v-6.4H78.4v6.4c0,3.8,0,4.1,1.6,4.3
	c0,0,0.9,0.1,1,0.1v1.3H70.5v-1.3c0,0,0.1,0,0.1,0c0.7-0.1,0.6-0.1,0.6-0.1c0.1,0,0.3,0,0.3,0c1.6-0.2,1.6-0.6,1.6-4.3V18.3
	c0-3.8,0-4.1-1.6-4.3c0,0-0.9-0.1-1-0.1v-1.3H81v1.3c0,0-0.1,0-0.1,0c-0.7,0.1-0.6,0.1-0.8,0.1c0,0-0.1,0-0.1,0
	c-1.6,0.2-1.6,0.6-1.6,4.3v5.4h11.1v-5.3c0-3.8,0-4.1-1.6-4.3c0,0-0.9-0.1-1-0.1v-1.3C86.8,12.6,97.2,12.6,97.2,12.6z M139,12.6
	c0,0-0.1,0-0.1,0c0,0.4-1.3,20.8-1.3,20.8c-0.2,2.5-0.7,2.7-1.7,2.9c0,0-1.1,0.2-1.1,0.2v1.2h8.5v-1.3c-0.1,0-1.4-0.2-1.4-0.2
	c-1.4-0.3-1.8-0.4-1.8-2l0-0.8l0.4-12.5c0,0,8.4,16.8,8.4,16.8c0,0,0.1,0,0.1,0c0.5-0.1,0.9-0.2,1.5-0.4c0,0,0.1,0,0.1,0
	c0,0,7.7-16.3,7.7-16.3l0,0l0.5,12.4l0,0.6c0,1.8-0.4,1.9-1.8,2.2c0,0-1.3,0.2-1.4,0.2v1.3h10.9v-1.3c-0.1,0-1.3-0.2-1.3-0.2
	c-1-0.2-1.5-0.4-1.7-3.3c0,0-1.1-20.6-1.1-20.7h-0.1c-0.8,0-1.1,0-1.9,0.2c0,0-0.1,0-0.1,0c0,0-9.3,18.4-9.3,18.4l0,0
	c0,0-10-18.6-10-18.6l-0.2,0C140,12.4,139.9,12.4,139,12.6 M200,12.6v1.3c0.8,0.1,1,0.1,1,0.1l0.2,0c1.4,0.3,1.4,0.3,1.4,4.3V32
	c0,4,0,4-1.5,4.3c0,0-0.1,0-0.1,0c0,0-1,0.1-1,0.1v1.3h18.6c0,0,0-0.1,0-0.1c0.8-2.5,1.1-4.5,1.3-6.9c0,0,0-0.1,0-0.1
	c0,0-1.6-0.3-1.6-0.3c0,0.1-0.2,0.6-0.2,0.6c-0.7,2.6-1.3,5.1-6.6,5.1c-1.2,0-2.5-0.3-3.6-0.5l0,0v-9.8h2.6c3.2,0,3.6,0,3.8,1.5
	c0,0,0.2,1.3,0.2,1.3h1.3v-7.8h-1.3c0,0-0.2,1.4-0.2,1.4c-0.2,1.4-0.6,1.5-4,1.5h-2.4v-9.4h2.6c3.9,0,5.1,0,6,4.7c0,0,0,0.1,0,0.1
	c0,0,1.6-0.2,1.6-0.2v-0.1c0-2,0-4.2-0.5-6.1c0,0,0-0.1,0-0.1h-0.1L200,12.6L200,12.6z M121.6,13.8c0.1,0,1.1,0.1,1.1,0.1
	c1.7,0.2,1.9,0.3,2,2.7l0.2,9.8c0,1.5,0,2.6-0.2,3.9c-0.6,4.4-3.6,6-6.3,6c-4.2,0-7-2.7-7-6.8V18.3c0-3.7,0-4.1,1.6-4.3
	c0,0,1-0.1,1-0.1v-1.3h-10.5v1.3c0.1,0,1,0.1,1,0.1c1.6,0.2,1.6,0.6,1.6,4.3v9.3c0,7.2,3.8,10.8,11.5,10.8c6.2,0,9.6-3.4,9.9-10.2
	l0.1-1.8c0,0,0,0,0.2-9.2c0-2.5,0.5-2.7,1.5-3c0,0,0.8-0.2,0.9-0.2c0,0,0-1.2,0-1.3h-8.6L121.6,13.8z M183.1,36c3.1,0,4.8-1.8,4.8-5
	c0-2.8-1.6-5.8-6.3-5.8h-1.4h0v10.2l0,0C181.2,35.8,182.2,36,183.1,36 M180.2,23.5h1.2c2.5,0,5.3-0.5,5.3-4.7c0-2.7-1.9-4.5-4.7-4.5
	c-0.6,0-1.2,0.1-1.8,0.2l0,0L180.2,23.5L180.2,23.5z M187.1,24c1.4,0.3,6,1.5,6,6.5c0,4.7-3.8,7.2-10.8,7.2h-9.9v-1.3
	c0,0,1-0.1,1-0.1c0,0,0.2,0,0.2,0C175,36,175,36,175,32V18.2c0-3.9,0-3.9-1.5-4.2l-0.1,0c0,0-0.9-0.1-1-0.1v-1.3h0.1h11.2
	c5.4,0,8.2,1.8,8.2,5.3C191.9,20.8,190.3,22.8,187.1,24L187.1,24L187.1,24 M235.9,25.2c5.3,0,5.3-4.3,5.3-5.7c0-3.2-2-5.3-5.2-5.3
	c-0.6,0-1.2,0.1-1.8,0.2l0,0v10.7H235.9 M249.8,36.5c0,0,0.2,0,0.2,0v1.3h-3.4c-3.7,0-5.3-2.2-6.2-4.1l-1.4-2.8l-0.7-1.4
	c-0.8-1.7-1.2-2.5-3-2.5h-1.1v5.1c0,3.8,0,4.1,1.6,4.3c0,0,0.9,0.1,1,0.1v1.3h-10.5v-1.3c0,0,0.1,0,0.1,0c0.7-0.1,0.7-0.1,0.8-0.1
	c0.1,0,0.2,0,0.2,0c1.6-0.2,1.6-0.6,1.6-4.3V18.3c0-3.8,0-4.1-1.7-4.3c0,0-0.9-0.1-1-0.1v-1.3h0.1h10.9c4.2,0,9,0.7,9,6.4
	c0,3.8-3.3,5.8-4.8,6.5l0,0l0,0c0.8,1.8,3.4,6.8,5.9,10C248.2,36.3,249.1,36.4,249.8,36.5"/>
<path class="st0" d="M56.2,9.2c0,2-1.6,3.6-3.5,3.6c-2,0-3.6-1.6-3.6-3.6c0-2,1.6-3.6,3.6-3.6C54.6,5.7,56.2,7.3,56.2,9.2"/>
<path class="st0" d="M12,32.1v-19h5.5v14c3.9-3.2,8.2-6.2,12.5-8.7v-12h5.5v9c3.5-1.8,7-3.2,10.5-4.4C41.4,4.4,33.8,0,25.2,0
	C11.3,0,0,11.3,0,25.2c0,5.6,1.8,10.8,4.9,14.9C7.1,37.3,9.4,34.6,12,32.1"/>
<path class="st1" d="M46.4,11.7c-3.6,1.5-7.3,3.5-10.9,6v26.2H30v-22c-7.6,6.4-14.4,14.9-18.6,24.3c4,2.6,8.7,4.1,13.8,4.1
	c13.9,0,25.2-11.3,25.2-25.2C50.4,20.2,48.9,15.6,46.4,11.7"/>
</svg>
